<?xml version="1.0" encoding="UTF-8" standalone="no"?>
<svg width="100px" height="152px" viewBox="0 0 100 152" version="1.1" xmlns="http://www.w3.org/2000/svg" xmlns:xlink="http://www.w3.org/1999/xlink">
    <!-- Generator: Sketch 41.1 (35376) - http://www.bohemiancoding.com/sketch -->
    <title>rabbit-simple</title>
    <desc>Created with Sketch.</desc>
    <defs></defs>
    <g id="Page-1" stroke="none" stroke-width="1" fill="none" fill-rule="evenodd" stroke-linecap="round" stroke-linejoin="round">
        <g id="rabbit" transform="translate(1.000000, 1.000000)" stroke-width="2">
            <g id="rabbit-simple">
                <path d="M42.1477198,123.515589 L47.0202819,128.390766" id="Stroke-1" stroke="#000000"></path>
                <path d="M47.0202819,128.390766 L51.8928437,123.515589" id="Stroke-2" stroke="#000000"></path>
                <path d="M50.3901913,119.885918 L43.6503723,119.885918" id="Stroke-3" stroke="#000000"></path>
                <polyline id="Stroke-4" stroke="#000000" points="43.6503723 119.885918 43.5304361 119.889307 43.4108821 119.899463 43.2920917 119.916354 43.1744435 119.939927 43.0583124 119.970105 42.9440688 120.006793 42.8320767 120.049873 42.7226933 120.099209 42.6162672 120.154643 42.5131375 120.215999 42.4136334 120.28308 42.3180718 120.355674 42.2267572 120.433548 42.1399812 120.516454 42.0580197 120.604128 41.9811349 120.696291 41.909571 120.792648 41.8435569 120.892894 41.7833024 120.996707 41.729 121.103757 41.6808226 121.213703 41.6389239 121.326194 41.6034375 121.440871 41.5744764 121.55737 41.5521328 121.675319 41.5364784 121.794341 41.5275628 121.914058 41.5254142 122.034087 41.5300398 122.154046 41.5414248 122.273553 41.5595326 122.392226 41.5843061 122.509688 41.6156657 122.625564 41.6535118 122.739484 41.6977235 122.851085 41.7481599 122.960012 41.8046605 123.065917 41.8670449 123.168463 41.9351144 123.267322 42.0086517 123.362181 42.0874228 123.452735 42.1477198 123.515589"></polyline>
                <polyline id="Stroke-5" stroke="#000000" points="51.8928437 123.515589 51.9752563 123.428339 52.052616 123.336575 52.124676 123.240589 52.1912066 123.140686 52.2519961 123.037185 52.3068502 122.930417 52.3555942 122.820722 52.398073 122.708449 52.4341507 122.593956 52.4637127 122.477608 52.4866644 122.359777 52.5029331 122.240837 52.5124664 122.121168 52.5152344 122.001151 52.5112279 121.88117 52.5004598 121.761606 52.4829645 121.64284 52.4587979 121.525252 52.4280365 121.409216 52.3907789 121.295102 52.3471438 121.183274 52.2972701 121.074088 52.2413169 120.967892 52.1794623 120.865026 52.111904 120.765816 52.0388574 120.670579 51.9605548 120.579619 51.877246 120.493225 51.7891966 120.411674 51.6966875 120.335224 51.6000134 120.264121 51.4994828 120.198589 51.3954155 120.13884 51.2881442 120.085062 51.17801 120.037427 51.0653645 119.996087 50.9505664 119.961174 50.8339821 119.932799 50.7159829 119.911053 50.5969452 119.896005 50.4772484 119.887703 50.3901913 119.885918"></polyline>
                <polyline id="Stroke-6" stroke="#000000" points="25.7695676 0.81803928 25.6140637 0.974170438 25.4591058 1.13084364 25.3046952 1.28805718 25.1508344 1.44580908 24.9975244 1.60409763 24.844768 1.76292029 24.6925664 1.92227564 24.5409216 2.0821614 24.3898358 2.24257617 24.2393105 2.40351739 24.0893473 2.56498335 23.9399486 2.72697208 23.7911159 2.88948159 23.6428511 3.05251018 23.4951561 3.2160553 23.3480323 3.38011525 23.201482 3.54468803 23.0555066 3.70977196 22.9101081 3.87536448 22.7652882 4.0414636 22.6210485 4.20806763 22.4773911 4.37517458 22.3343177 4.54278218 22.1918297 4.71088816 22.049929 4.87949111 21.9086175 5.04858848 21.7678969 5.21817828 21.6277686 5.38825881 21.4882347 5.55882751 21.3492967 5.72988241 21.2109562 5.90142152 21.073215 6.07344285 20.9360751 6.24594414 20.7995376 6.4189234 20.6636044 6.59237837 20.5282773 6.76630706 20.3935577 6.94070748 20.2594473 7.11557709 20.125948 7.29091418 19.9930611 7.46671648 19.8607884 7.64298174 19.7291315 7.81970795 19.5980919 7.99689286 19.4676712 8.17453448 19.3378712 8.35263026 19.2086932 8.5311785 19.0801389 8.71017664 18.9522099 8.88962271 18.8249076 9.06951471 18.6982338 9.24984982 18.5721901 9.43062661 18.4467775 9.61184225 18.3219981 9.79349504 18.1978531 9.97558243 18.0743443 10.1581021 17.9514729 10.3410522 17.8292405 10.5244304 17.7076488 10.708234 17.586699 10.8924615 17.4663925 11.0771103 17.3467312 11.262178 17.2277161 11.4476626 17.1093488 11.6335615 16.9916309 11.819873 16.8745635 12.0065941 16.7581484 12.1937232 16.642387 12.3812576 16.5272804 12.5691955 16.4128303 12.757534 16.2990378 12.946271 16.1859047 13.1354044 16.0734317 13.3249318 15.9616209 13.5148507 15.8504735 13.7051592 15.7399904 13.8958543 15.6301735 14.0869345 15.5210239 14.278397 15.4125427 14.4702395 15.3047319 14.6624596 15.197592 14.8550553 15.0911248 15.0480237 14.9853314 15.241363 14.8802132 15.4350706 14.7757716 15.6291442 14.6720075 15.8235812 14.5689225 16.0183793 14.4665176 16.2135367 14.3647944 16.4090501 14.2637537 16.6049179 14.1633971 16.8011372 14.0637256 16.9977058 13.9647403 17.1946214 13.866443 17.3918815 13.7688342 17.5894837 13.6719157 17.7874255 13.5756879 17.9857047 13.4801529 18.1843187 13.385311 18.3832653 13.2911641 18.5825418 13.1977128 18.7821458 13.1049585 18.9820752 13.0129024 19.1823273 12.9215453 19.3828994 12.8308886 19.5837896 12.7409332 19.784995 12.6516805 19.9865137 12.5631313 20.1883425 12.4752868 20.3904795 12.3881481 20.5929222 12.3017161 20.7956678 12.2159919 20.998714 12.1309768 21.2020584 12.0466715 21.4056988 11.9630772 21.609632 11.8801949 21.8138561 11.7980257 22.0183682 11.7165703 22.2231664 11.6358301 22.4282475 11.5558058 22.6336095 11.4764984 22.8392497 11.3979088 23.0451657 11.3200382 23.2513549 11.2428876 23.4578147 11.1664576 23.6645429 11.0907492 23.8715364 11.0157634 24.0787933 10.9415012 24.2863108 10.8679636 24.4940865 10.7951512 24.7021177 10.7230651 24.910402 10.6517058 25.1189366 10.581075 25.3277193 10.5111726 25.5367475 10.4419998 25.7460183 10.3735578 25.9555296 10.305847 26.1652785 10.2388685 26.3752626 10.1726229 26.5854795 10.1071112 26.7959266 10.0423339 27.006601 9.97829221 27.2175003 9.91498661 27.4286221 9.85241799 27.6399636 9.7905872 27.8515226 9.72949451 28.0632961 9.66914135 28.2752818 9.609528 28.4874766 9.5506553 28.6998787 9.49252411 28.9124849 9.43513472 29.1252929 9.37848853 29.3383002 9.32258555 29.5515037 9.26742663 29.7649014 9.2130129 29.9784905 9.15934436 30.1922681 9.10642215 30.4062322 9.05424655 30.6203795 9.0028184 30.8347079 8.95213857 31.0492143 8.90220704 31.2638966 8.85302495 31.478752 8.80459287 31.6937778 8.75691109 31.9089717 8.70998044 32.1243307 8.66380151 32.339852 8.61837456 32.5555336 8.57370046 32.7713725 8.52977977 32.9873658 8.48661277 33.2035115 8.44420031 33.4198065 8.40254239 33.6362484 8.36163987 33.8528345 8.32149359 34.0695619 8.28210326 34.2864284 8.24347003 34.5034311 8.20559389 34.7205675 8.16847569 34.9378346 8.13211572 35.1552302 8.09651426 35.3727516 8.06167215 35.5903958 8.02758941 35.8081604 7.99426659 36.0260427 7.96170398 36.2440402 7.92990242 36.4621498 7.89886193 36.6803695 7.86858278 36.898696 7.83906554 37.1171272 7.81031049 37.3356598 7.7823182 37.5542917 7.75508866 37.77302 7.72862274 37.9918421 7.70292014 38.2107552 7.67798144 38.429757 7.65380691 38.6488442 7.63039684 38.8680147 7.60775151 39.0872657 7.58587149 39.3065944 7.5647565 39.525998 7.54440738 39.7454741 7.52482386 39.9650199 7.50600649 40.184633 7.48795557 40.4043101 7.4706708 40.6240493 7.45415305 40.8438472 7.4384023 41.0637018 7.42341828 41.2836097 7.40920184 41.5035689 7.39575297 41.7235762 7.38307139 41.9436293 7.37115796 42.1637251 7.36001239 42.3838612 7.34963467 42.604035 7.34002538 42.824244 7.33118423 43.0444847 7.32311179 43.2647551 7.3158075 43.4850526 7.3092722 43.7053741 7.30350532 43.9257168 7.29850743 44.1460786 7.29427826 44.3664565 7.29081779 44.5868477 7.28812632 44.80725 7.28620384 45.02766 7.28505035 45.2480756 7.28466585 45.4684935 7.28505035 45.6889117 7.28620384 45.9093273 7.28812632 46.1297372 7.29081779 46.3501395 7.29427826 46.5705308 7.29850743 46.7909087 7.30350532 47.0112705 7.3092722 47.2316132 7.3158075 47.4519347 7.32311179 47.6722321 7.33118423 47.8925026 7.34002538 48.1127433 7.34963467 48.3329523 7.36001239 48.5531261 7.37115796 48.7732622 7.38307139 48.993358 7.39575297 49.213411 7.40920184 49.4334184 7.42341828 49.6533776 7.4384023 49.8732855 7.45415305 50.0931401 7.4706708 50.312938 7.48795557 50.5326772 7.50600649 50.7523543 7.52482386 50.9719673 7.54440738 51.1915132 7.5647565 51.4109893 7.58587149 51.6303929 7.60775151 51.8497216 7.63039684 52.0689726 7.65380691 52.2881431 7.67798144 52.5072303 7.70292014 52.7262321 7.72862274 52.9451452 7.75508866 53.1639673 7.7823182 53.3826956 7.81031049 53.6013274 7.83906554 53.8198601 7.86858278 54.0382912 7.89886193 54.2566178 7.92990242 54.4748374 7.96170398 54.6929471 7.99426659 54.9109445 8.02758941 55.1288268 8.06167215 55.3465915 8.09651426 55.5642357 8.13211572 55.7817571 8.16847569 55.9991527 8.20559389 56.2164198 8.24347003 56.4335562 8.28210326 56.6505588 8.32149359 56.8674254 8.36163987 57.0841527 8.40254239 57.3007389 8.44420031 57.5171808 8.48661277 57.7334758 8.52977977 57.9496214 8.57370046 58.1656148 8.61837456 58.3814537 8.66380151 58.5971352 8.70998044 58.8126566 8.75691109 59.0280155 8.80459287 59.2432095 8.85302495 59.4582353 8.90220704 59.6730907 8.95213857 59.8877729 9.0028184 60.1022794 9.05424655 60.3166078 9.10642215 60.5307551 9.15934436 60.7447192 9.2130129 60.9584968 9.26742663 61.1720858 9.32258555 61.3854835 9.37848853 61.5986871 9.43513472 61.8116944 9.49252411 62.0245024 9.5506553 62.2371086 9.609528 62.4495107 9.66914135 62.6617055 9.72949451 62.8736911 9.7905872 63.0854647 9.85241799 63.2970237 9.91498661 63.5083652 9.97829221 63.719487 10.0423339 63.9303862 10.1071112 64.1410607 10.1726229 64.3515078 10.2388685 64.5617247 10.305847 64.7717088 10.3735578 64.9814577 10.4419998 65.1909689 10.5111726 65.4002398 10.581075 65.609268 10.6517058 65.8180507 10.7230651 66.0265853 10.7951512 66.2348696 10.8679636 66.4429008 10.9415012 66.6506765 11.0157634 66.8581939 11.0907492 67.0654509 11.1664576 67.2724444 11.2428876 67.4791726 11.3200382 67.6856323 11.3979088 67.8918216 11.4764984 68.0977376 11.5558058 68.3033778 11.6358301 68.5087398 11.7165703 68.7138209 11.7980257 68.9186191 11.8801949 69.1231312 11.9630772 69.3273553 12.0466715 69.5312885 12.1309768 69.7349289 12.2159919 69.9382733 12.3017161 70.1413195 12.3881481 70.3440651 12.4752868 70.5465077 12.5631313 70.7486447 12.6516805 70.9504736 12.7409332 71.1519923 12.8308886 71.3531977 12.9215453 71.5540879 13.0129024 71.75466 13.1049585 71.9549121 13.1977128 72.1548415 13.2911641 72.3544455 13.385311 72.553722 13.4801529 72.7526685 13.5756879 72.9512826 13.6719157 73.1495618 13.7688342 73.3475036 13.866443 73.5451058 13.9647403 73.7423659 14.0637256 73.9392814 14.1633971 74.13585 14.2637537 74.3320694 14.3647944 74.5279372 14.4665176 74.7234506 14.5689225 74.9186079 14.6720075 75.1134061 14.7757716 75.3078431 14.8802132 75.5019167 14.9853314 75.6956242 15.0911248 75.8889635 15.197592 76.081932 15.3047319 76.2745277 15.4125427 76.4667478 15.5210239 76.6585902 15.6301735 76.8500528 15.7399904 77.0411329 15.8504735 77.2318281 15.9616209 77.4221365 16.0734317 77.6120555 16.1859047 77.8015829 16.2990378 77.9907163 16.4128303 78.1794533 16.5272804 78.3677918 16.642387 78.5557296 16.7581484 78.7432641 16.8745635 78.9303932 16.9916309 79.1171143 17.1093488 79.3034257 17.2277161 79.4893247 17.3467312 79.6748092 17.4663925 79.859877 17.586699 80.0445258 17.7076488 80.2287533 17.8292405 80.4125569 17.9514729 80.5959351 18.0743443 80.7788851 18.1978531 80.9614048 18.3219981 81.1434922 18.4467775 81.325145 18.5721901 81.5063607 18.6982338 81.6871375 18.8249076 81.8674726 18.9522099 82.0473646 19.0801389 82.2268106 19.1525517 82.3278"></polyline>
                <polygon id="Stroke-7" stroke="#20B2AA" points="36.3949248 111.381069 36.3915374 111.261069 36.3813867 111.141451 36.3645045 111.022596 36.3409449 110.904885 36.3107827 110.788691 36.2741148 110.674387 36.2310571 110.562334 36.1817475 110.452892 36.1263432 110.346409 36.0650205 110.243224 35.997975 110.143666 35.9254206 110.048054 35.8475886 109.95669 35.7647266 109.869867 35.6770995 109.787862 35.5849861 109.710936 35.4886804 109.639334 35.388489 109.573284 35.2847317 109.512997 35.1777391 109.458666 35.0678522 109.410462 34.9554215 109.368541 34.8408054 109.333036 34.724369 109.304059 34.6064837 109.281704 34.4875253 109.266041 34.3678727 109.25712 34.2479079 109.25497 34.1280131 109.259599 34.0085704 109.27099 33.8899606 109.289108 33.772562 109.313894 33.6567484 109.34527 33.5428897 109.383137 33.4313481 109.427372 33.3224798 109.477836 33.2166314 109.534367 33.1141406 109.596785 33.0153342 109.664891 32.9205268 109.738467 32.8300211 109.817281 32.7441051 109.901079 32.6630531 109.989595 32.5871235 110.082548 32.5165581 110.17964 32.4515822 110.280561 32.3924023 110.384992 32.3392078 110.492597 32.2921678 110.603035 32.2514325 110.715953 32.2171313 110.830991 32.1893741 110.947783 32.1682495 111.065956 32.1538243 111.185134 32.1461445 111.304936 32.145235 111.424981 32.1510985 111.544886 32.1637163 111.664269 32.1830482 111.782749 32.2090325 111.899948 32.2415866 112.015494 32.2806063 112.129017 32.3259675 112.240155 32.3775257 112.348555 32.4351163 112.453871 32.4985556 112.555767 32.5676417 112.653918 32.6421543 112.748011 32.7218558 112.837746 32.8064921 112.922839 32.8957932 113.003016 32.9894749 113.078022 33.0872381 113.147619 33.1887712 113.211584 33.2937508 113.269714 33.4018421 113.321823 33.5127006 113.367745 33.6259726 113.407335 33.7412974 113.440464 33.8583069 113.467028 33.9766286 113.486943 34.0958848 113.500145 34.2156958 113.506591 34.3356796 113.506261 34.4554531 113.499157 34.5746354 113.4853 34.6928457 113.464735 34.8097079 113.437528 34.9248488 113.403765 35.0379021 113.363554 35.1485066 113.317023 35.2563101 113.264321 35.360969 113.205615 35.4621496 113.141092 35.5595292 113.070959 35.6527974 112.995439 35.7416571 112.914772 35.825825 112.829216 35.9050326 112.739044 35.9790273 112.644543 36.0475736 112.546013 36.1104525 112.44377 36.1674642 112.33814 36.2184263 112.229458 36.2631766 112.118072 36.3015727 112.004336 36.3334915 111.888614 36.358832 111.771273 36.3775131 111.652689 36.3894753 111.533239 36.3946805 111.413303"></polygon>
                <polyline id="Stroke-8" stroke="#000000" points="19.1525517 82.3278 19.0216895 82.4253577 18.8911685 82.5233716 18.7609903 82.621841 18.6311563 82.7207643 18.5016684 82.8201403 18.3725278 82.9199683 18.2437363 83.0202464 18.1152955 83.1209738 17.9872067 83.2221492 17.8594718 83.3237714 17.7320922 83.4258389 17.6050696 83.5283507 17.4784054 83.6313056 17.3521011 83.7347021 17.226158 83.8385392 17.1005782 83.9428158 16.975363 84.04753 16.8505139 84.1526808 16.7260324 84.2582674 16.60192 84.3642877 16.4781782 84.4707412 16.3548084 84.5776259 16.2318124 84.6849409 16.1091916 84.7926849 15.9869475 84.9008566 15.8650815 85.0094545 15.7435948 85.1184773 15.6224896 85.2279236 15.5017668 85.3377924 15.381428 85.4480821 15.2614748 85.5587914 15.1419086 85.6699189 15.0227307 85.7814634 14.9039429 85.8934235 14.7855461 86.0057975 14.6675423 86.1185845 14.5499326 86.2317832 14.4327185 86.3453915 14.3159016 86.4594089 14.1994831 86.5738334 14.0834647 86.6886636 13.9678475 86.8038987 13.8526329 86.9195365 13.7378227 87.0355764 13.6234179 87.1520163 13.50942 87.2688551 13.3958304 87.3860913 13.2826505 87.5037235 13.1698817 87.6217504 13.0575255 87.7401702 12.945583 87.8589821 12.8340556 87.9781838 12.7229449 88.0977744 12.6122522 88.2177523 12.5019786 88.3381164 12.3921254 88.4588645 12.2826944 88.5799957 12.1736865 88.7015084 12.0651036 88.823401 11.9569462 88.9456721 11.8492161 89.06832 11.7419145 89.1913437 11.6350429 89.3147411 11.5286024 89.4385114 11.4225945 89.5626524 11.3170201 89.6871631 11.2118809 89.8120415 11.107178 89.9372864 11.0029127 90.0628962 10.8990859 90.1888695 10.7956998 90.3152047 10.6927548 90.4419001 10.5902524 90.5689543 10.488194 90.6963657 10.3865805 90.8241329 10.2854138 90.9522539 10.1846942 91.0807276 10.0844237 91.2095525 9.98460339 91.3387264 9.8852342 91.4682484 9.7863175 91.5981166 9.68785444 91.7283295 9.58984615 91.8588855 9.49229404 91.989783 9.39519924 92.1210205 9.29856289 92.2525962 9.20238613 92.3845087 9.10667036 92.5167559 9.01141644 92.6493369 8.91662551 92.7822498 8.82229897 92.915493 8.72843768 93.0490648 8.63504334 93.1829634 8.54211652 93.3171875 8.44965834 93.4517353 8.35767052 93.5866052 8.26615333 93.7217957 8.17510875 93.8573049 8.08453735 93.993131 7.99444028 94.1292729 7.90481893 94.2657287 7.81567388 94.4024963 7.72700684 94.5395746 7.63881836 94.6769619 7.55110986 94.8146563 7.46388219 94.9526559 7.37713649 95.0909595 7.29087389 95.2295653 7.20509553 95.3684716 7.11980224 95.5076764 7.03499489 95.6471783 6.95067489 95.7869756 6.86684309 95.9270666 6.78350062 96.0674494 6.70064834 96.2081227 6.61828737 96.3490843 6.53641885 96.4903326 6.45504335 96.631866 6.37416228 96.7736826 6.2937765 96.9157811 6.21388685 97.0581593 6.13449446 97.200816 6.05560019 97.3437487 5.97720517 97.4869562 5.89931025 97.6304367 5.82191629 97.7741882 5.7450244 97.9182093 5.66863545 98.062498 5.59275028 98.2070527 5.51736975 98.3518715 5.44249527 98.4969526 5.36812712 98.6422942 5.29426643 98.787895 5.22091435 98.9337526 5.14807172 99.0798656 5.07573911 99.2262323 5.00391736 99.3728505 4.9326079 99.5197185 4.86181128 99.6668351 4.79152809 99.8141977 4.72175944 99.9618047 4.65250648 100.109655 4.58376949 100.257746 4.51554988 100.406076 4.44784794 100.554644 4.38066479 100.703447 4.31400102 100.852484 4.24785775 101.001752 4.18223582 101.151251 4.11713554 101.300978 4.0525583 101.450932 3.9885044 101.60111 3.92497496 101.751511 3.86197056 101.902133 3.79949204 102.052974 3.73754026 102.204032 3.67611578 102.355306 3.61521917 102.506793 3.55485184 102.658492 3.49501408 102.810401 3.43570645 102.962519 3.37693009 103.114842 3.31868528 103.267369 3.26097316 103.4201 3.203794 103.573031 3.14714895 103.72616 3.09103856 103.879487 3.03546313 104.033008 2.98042378 104.186723 2.92592108 104.340629 2.8719556 104.494724 2.81852819 104.649007 2.76563941 104.803476 2.71328955 104.958128 2.66147974 105.112962 2.61021055 105.267976 2.55948226 105.423169 2.50929573 105.578537 2.45965179 105.73408 2.41055046 105.889796 2.36199286 106.045681 2.31397956 106.201736 2.26651085 106.357957 2.21958729 106.514343 2.17320973 106.670892 2.12737874 106.827602 2.0820946 106.984471 2.03735816 107.141498 1.99316971 107.29868 1.9495301 107.456014 1.90643931 107.613501 1.8638985 107.771137 1.82190794 107.928921 1.78046791 108.08685 1.73957927 108.244923 1.6992423 108.403138 1.65945728 108.561492 1.62022534 108.719985 1.58154649 108.878614 1.5434213 109.037377 1.50585003 109.196273 1.46883356 109.355298 1.43237215 109.514452 1.39646609 109.673732 1.36111595 109.833136 1.3263223 109.992663 1.29208541 110.152311 1.25840558 110.312077 1.22528337 110.47196 1.19271906 110.631957 1.16071322 110.792068 1.12926613 110.952289 1.09837835 111.112619 1.0680499 111.273056 1.03828162 111.433597 1.0090735 111.594242 0.980425839 111.754988 0.952339478 111.915833 0.924814136 112.076775 0.897850663 112.237812 0.871449059 112.398942 0.845609891 112.560164 0.820333158 112.721475 0.795619427 112.882873 0.771468982 113.044356 0.747882106 113.205923 0.724859082 113.367571 0.702399911 113.529299 0.680505441 113.691104 0.659175391 113.852985 0.638410327 114.014939 0.618210248 114.176964 0.598575721 114.339059 0.579506747 114.501222 0.561003608 114.663451 0.543066589 114.825743 0.525695971 114.988096 0.508891757 115.15051 0.492654511 115.312981 0.476983951 115.475508 0.461880643 115.638088 0.447344304 115.80072 0.433375785 115.963402 0.419974801 116.126132 0.407141636 116.288908 0.394876574 116.451727 0.383179331 116.614589 0.372050757 116.77749 0.361490285 116.940429 0.3514982 117.103404 0.342075066 117.266413 0.333220602 117.429453 0.324934807 117.592524 0.317218247 117.755623 0.31007064 117.918747 0.303492269 118.081896 0.297483134 118.245066 0.292043234 118.408257 0.287172571 118.571466 0.282871426 118.73469 0.279139801 118.897929 0.275977695 119.06118 0.273385107 119.22444 0.271362323 119.387709 0.269908774 119.550984 0.269025027 119.714263 0.268711084 119.877544 0.268710517 119.885918"></polyline>
                <polygon id="Stroke-9" stroke="#14716C" points="61.8957819 111.381069 61.8923946 111.261069 61.8822438 111.141451 61.8653617 111.022596 61.841802 110.904885 61.8116399 110.788691 61.7749719 110.674387 61.7319143 110.562334 61.6826047 110.452892 61.6272004 110.346409 61.5658776 110.243224 61.4988322 110.143666 61.4262777 110.048054 61.3484457 109.95669 61.2655838 109.869867 61.1779566 109.787862 61.0858432 109.710936 60.9895376 109.639334 60.8893461 109.573284 60.7855888 109.512997 60.6785963 109.458666 60.5687094 109.410462 60.4562786 109.368541 60.3416625 109.333036 60.2252261 109.304059 60.1073408 109.281704 59.9883824 109.266041 59.8687298 109.25712 59.748765 109.25497 59.6288702 109.259599 59.5094276 109.27099 59.3908177 109.289108 59.2734191 109.313894 59.1576056 109.34527 59.0437468 109.383137 58.9322052 109.427372 58.8233369 109.477836 58.7174885 109.534367 58.6149978 109.596785 58.5161913 109.664891 58.4213839 109.738467 58.3308783 109.817281 58.2449622 109.901079 58.1639103 109.989595 58.0879806 110.082548 58.0174152 110.17964 57.9524393 110.280561 57.8932595 110.384992 57.840065 110.492597 57.7930249 110.603035 57.7522896 110.715953 57.7179884 110.830991 57.6902313 110.947783 57.6691066 111.065956 57.6546814 111.185134 57.6470017 111.304936 57.6460921 111.424981 57.6519556 111.544886 57.6645734 111.664269 57.6839054 111.782749 57.7098896 111.899948 57.7424437 112.015494 57.7814634 112.129017 57.8268246 112.240155 57.8783828 112.348555 57.9359734 112.453871 57.9994127 112.555767 58.0684988 112.653918 58.1430115 112.748011 58.222713 112.837746 58.3073492 112.922839 58.3966504 113.003016 58.490332 113.078022 58.5880952 113.147619 58.6896283 113.211584 58.7946079 113.269714 58.9026993 113.321823 59.0135577 113.367745 59.1268297 113.407335 59.2421545 113.440464 59.3591641 113.467028 59.4774858 113.486943 59.5967419 113.500145 59.7165529 113.506591 59.8365367 113.506261 59.9563103 113.499157 60.0754925 113.4853 60.1937028 113.464735 60.310565 113.437528 60.425706 113.403765 60.5387592 113.363554 60.6493638 113.317023 60.7571672 113.264321 60.8618261 113.205615 60.9630067 113.141092 61.0603863 113.070959 61.1536546 112.995439 61.2425143 112.914772 61.3266821 112.829216 61.4058898 112.739044 61.4798845 112.644543 61.5484308 112.546013 61.6113097 112.44377 61.6683214 112.33814 61.7192834 112.229458 61.7640337 112.118072 61.8024298 112.004336 61.8343486 111.888614 61.8596891 111.771273 61.8783702 111.652689 61.8903324 111.533239 61.8955377 111.413303"></polygon>
                <polyline id="Stroke-10" stroke="#000000" points="54.7500108 20.9212873 54.6647254 21.1245186 54.5801493 21.3280461 54.4962841 21.5318682 54.4131303 21.7359817 54.3306891 21.9403844 54.2489614 22.1450737 54.1679486 22.3500474 54.0876512 22.5553025 54.0080704 22.7608369 53.9292073 22.966648 53.8510625 23.1727336 53.7736374 23.3790904 53.6969325 23.5857165 53.620949 23.7926094 53.5456878 23.9997663 53.4711496 24.2071848 53.3973357 24.4148621 53.3242468 24.6227963 53.2518836 24.8309843 53.1802474 25.0394239 53.1093386 25.2481125 53.0391586 25.4570471 52.9697075 25.6662259 52.900987 25.8756458 52.8329974 26.0853045 52.7657398 26.2951994 52.6992146 26.5053278 52.6334232 26.7156873 52.5683657 26.9262753 52.5040438 27.1370895 52.4404574 27.3481268 52.3776077 27.5593847 52.3154955 27.7708612 52.2541215 27.9825531 52.1934864 28.1944582 52.1335908 28.4065737 52.0744359 28.6188972 52.016022 28.8314257 51.9583498 29.0441572 51.9014203 29.2570888 51.8452339 29.4702181 51.7897914 29.6835421 51.7350935 29.8970583 51.6811407 30.1107644 51.627934 30.3246577 51.5754737 30.5387355 51.5237608 30.752995 51.4727956 30.967434 51.4225788 31.1820496 51.3731111 31.3968393 51.3243928 31.6118007 51.2764251 31.8269306 51.229208 32.0422268 51.1827426 32.2576867 51.1370289 32.4733076 51.0920678 32.6890866 51.0478598 32.9050216 51.0044055 33.1211094 50.9617055 33.337348 50.9197599 33.553734 50.8785695 33.7702655 50.8381348 33.9869395 50.7984563 34.2037534 50.7595344 34.4207044 50.7213698 34.6377901 50.6839626 34.8550076 50.6473133 35.0723547 50.6114228 35.2898285 50.5762912 35.5074262 50.5419188 35.7251452 50.5083064 35.942983 50.4754543 36.1609367 50.4433626 36.3790039 50.4120316 36.5971819 50.3814623 36.8154682 50.3516547 37.0338596 50.3226092 37.252354 50.2943262 37.4709485 50.266806 37.6896401 50.2400488 37.9084268 50.2140552 38.1273056 50.1888252 38.3462737 50.1643594 38.5653288 50.140658 38.7844679 50.1177211 39.0036886 50.0955493 39.2229878 50.0741427 39.4423633 50.0535018 39.6618122 50.0336264 39.8813317 50.0145169 40.1009195 49.9961739 40.3205725 49.978597 40.5402882 49.9617871 40.7600642 49.9457437 40.9798973 49.9304675 41.1997853 49.9159587 41.4197252 49.9022171 41.6397145 49.8892431 41.8597505 49.8770367 42.0798305 49.8655984 42.2999515 49.854928 42.5201112 49.845026 42.7403071 49.8358922 42.9605359 49.8275265 43.1807956 49.8199295 43.4010828 49.8131009 43.6213955 49.8070414 43.8417306 49.8017502 44.0620855 49.7972281 44.2824575 49.7934746 44.5028439 49.7904902 44.7232423 49.7882744 44.9436497 49.786828 45.1640633 49.7861505 45.3844809 49.7862417 45.6048994 49.7871023 45.8253161 49.7887315 46.0457286 49.79113 46.266134 49.7942972 46.4865295 49.7982334 46.7069128 49.8029383 46.9272811 49.8084119 47.1476315 49.8146545 47.3679615 49.8216655 47.5882686 49.8294453 47.8085495 49.8379935 48.0288019 49.8473101 48.2490233 49.8573948 48.4692107 49.8682477 48.6893615 49.8798687 48.9094733 49.8922573 49.1295427 49.9054138 49.349568 49.9193378 49.5695456 49.9340291 49.7894736 49.9494877 50.0093486 49.9657131 50.2291686 49.9827054 50.4489302 50.0004645 50.6686314 50.0189898 50.8882691 50.0382814 51.1078411 50.0583387 51.3273441 50.0791619 51.5467757 50.1007503 51.7661334 50.1231038 51.9854142 50.1462223 52.2046156 50.1701056 52.4237348 50.194753 52.6427695 50.2201646 52.8617166 50.2463398 53.0805739 50.2732784 53.2993381 50.3009799 53.5180071 50.3294443 53.736578 50.3586708 53.955048 50.3886595 54.1734148 50.4194099 54.3916753 50.4509216 54.6098273 50.483194 54.827868 50.5162273 55.0457943 50.5500202 55.2636043 50.5845733 55.4812947 50.6198852 55.6988632 50.6559561 55.9163069 50.6927853 56.1336234 50.7303727 56.35081 50.7687175 56.5678639 50.8078191 56.7847826 50.8476775 57.0015633 50.8882919 57.2182036 50.9296616 57.4347008 50.9717868 57.6510522 51.0146662 57.8672551 51.0582999 58.0833069 51.1026869 58.299205 51.1478269 58.5149467 51.1937193 58.7305295 51.2403635 58.9459505 51.2877588 59.1612077 51.335905 59.3762976 51.3848015 59.5912185 51.4344471 59.8059671 51.4848419 60.020541 51.535985 60.2349374 51.5878756 60.4491542 51.6405133 60.6631883 51.6938977 60.8770373 51.7480275 61.0906984 51.8029025 61.3041693 51.8585219 61.5174473 51.914885 61.7305295 51.971991 61.9434138 52.0298395 62.1560974 52.0884297 62.3685774 52.1477608 62.5808516 52.2078323 62.7929175 52.2686431 63.0047721 52.3301925 63.216413 52.3924801 63.4278379 52.4555049 63.6390436 52.5192664 63.8500282 52.5837631 64.0607885 52.6489952 64.2713227 52.7149611 64.4816274 52.7816603 64.6917006 52.8490919 64.9015396 52.9172554 65.1111416 52.9861496 65.3205046 53.0557741 65.5296255 53.1261275 65.738502 53.1972092 65.9471313 53.2690182 66.1555114 53.341554 66.3636393 53.4148154 66.5715128 53.4888016 66.7791289 53.5635114 66.9864853 53.6389447 67.1935798 53.7150996 67.4004095 53.7919759 67.6069718 53.8695722 67.8132643 53.9478876 68.0192846 54.0269215 68.2250302 54.1066726 68.4304986 54.1871403 68.6356871 54.2683231 68.8405936 54.3502205 69.0452149 54.4328311 69.2495492 54.516154 69.4535936 54.6001884 69.6573457 54.6849332 69.8608032 54.7703871 70.0639633 54.8565494 70.2668241 54.9434189 70.4693824 55.0309945 70.6716362 55.1192754 70.8735827 55.2082601 71.0752199 55.2979477 71.2765449 55.3883372 71.4775556 55.4794274 71.6782493 55.5712174 71.8786236 55.6637056 72.0786763 55.7568914 72.2784047 55.8507734 72.4778063 55.9453504 72.6768787 56.0406213 72.8756197 56.1365853 73.0740271 56.2332407 73.2720976 56.3305865 73.4698297 56.4286217 73.6672204 56.5273449 73.8642675 56.6267549 74.0609688 56.6531709 74.1129527"></polyline>
                <polyline id="Stroke-11" stroke="#000000" points="56.6531709 74.1129527 56.4934202 74.0795885 56.3335545 74.0467822 56.1735752 74.0145346 56.0134842 73.9828461 55.8532838 73.9517167 55.6929758 73.9211471 55.5325621 73.8911375 55.3720444 73.8616883 55.2114253 73.8327999 55.0507064 73.8044728 54.8898895 73.776707 54.7289765 73.7495031 54.5679698 73.7228614 54.4068712 73.6967821 54.2456826 73.6712659 54.0844058 73.6463124 53.9230429 73.6219225 53.7615961 73.5980964 53.6000672 73.5748342 53.4384578 73.5521362 53.2767704 73.5300029 53.1150069 73.5084343 52.9531688 73.4874308 52.7912588 73.4669928 52.6292782 73.4471203 52.4672293 73.4278138 52.3051141 73.409073 52.1429346 73.3908987 51.9806925 73.3732912 51.81839 73.35625 51.6560289 73.3397761 51.4936117 73.3238692 51.3311398 73.3085296 51.1686152 73.2937575 51.0060401 73.2795533 50.8434166 73.2659169 50.6807464 73.2528486 50.5180316 73.2403485 50.3552744 73.2284164 50.1924763 73.2170534 50.0296398 73.2062588 49.8667664 73.1960328 49.7038584 73.1863758 49.5409175 73.1772878 49.3779461 73.1687691 49.214946 73.1608193 49.0519191 73.1534391 48.8888674 73.1466284 48.7257931 73.140387 48.5626979 73.1347154 48.3995839 73.1296131 48.2364529 73.1250808 48.0733075 73.1211181 47.9101491 73.1177253 47.7469796 73.1149025 47.5838016 73.1126493 47.4206165 73.1109662 47.2574266 73.1098529 47.0942338 73.1093097 46.93104 73.1093364 46.7678475 73.1099331 46.6046579 73.1110997 46.4414734 73.1128361 46.2782962 73.1151426 46.1151279 73.118019 45.9519705 73.1214651 45.788826 73.1254811 45.6256967 73.1300669 45.4625844 73.1352226 45.2994912 73.1409475 45.1364189 73.1472422 44.9733692 73.1541065 44.8103448 73.16154 44.6473473 73.169543 44.4843787 73.1781151 44.3214409 73.1872564 44.1585361 73.1969666 43.9956661 73.2072459 43.8328329 73.2180938 43.6700385 73.2295105 43.5072853 73.2414955 43.3445745 73.2540489 43.1819088 73.2671705 43.0192895 73.2808599 42.8567193 73.2951174 42.6941995 73.3099428 42.5317327 73.3253354 42.3693206 73.3412953 42.2069648 73.3578225 42.044668 73.3749167 41.8824316 73.3925776 41.720258 73.4108049 41.5581488 73.4295984 41.3961064 73.4489582 41.2341323 73.4688837 41.0722288 73.4893747 40.9103978 73.510431 40.7486414 73.5320526 40.5869611 73.5542389 40.4253593 73.5769896 40.2638378 73.6003046 40.1023986 73.6241836 39.9410439 73.6486265 39.7797754 73.6736325 39.618595 73.6992018 39.4575049 73.7253338 39.2965069 73.7520282 39.1356031 73.7792846 38.9747952 73.8071031 38.8140854 73.8354829 38.6534756 73.8644238 38.4929679 73.8939254 38.3325641 73.9239875 38.172266 73.9546095 38.0120755 73.9857913 37.851995 74.0175323 37.6920264 74.0498323 37.5321712 74.0826905 37.3873926 74.1129527"></polyline>
                <polyline id="Stroke-12" stroke="#000000" points="57.062775 29.0419734 57.1128953 29.163349 57.1634385 29.2845484 57.2144043 29.4055707 57.2657919 29.5264144 57.3176011 29.6470778 57.3698306 29.7675595 57.4224805 29.887858 57.4755495 30.007972 57.5290372 30.1278997 57.5829432 30.24764 57.6372663 30.3671916 57.6920064 30.4865523 57.7471625 30.6057214 57.8027343 30.7246968 57.8587205 30.8434778 57.9151208 30.9620623 57.9719344 31.080449 58.0291609 31.1986369 58.0867994 31.3166238 58.1448489 31.4344089 58.2033091 31.5519907 58.2621792 31.6693675 58.3214585 31.7865377 58.3811461 31.9035006 58.4412417 32.020254 58.5017439 32.1367968 58.5626524 32.2531278 58.6239664 32.3692451 58.6856853 32.4851477 58.7478079 32.6008341 58.810334 32.7163027 58.8732622 32.8315525 58.9365925 32.9465814 59.0003236 33.0613886 59.0644546 33.1759728 59.1289854 33.2903321 59.1939145 33.4044652 59.2592415 33.5183709 59.3249654 33.6320478 59.3910855 33.7454946 59.457601 33.8587094 59.524511 33.9716915 59.5918149 34.0844391 59.6595117 34.1969512 59.7276004 34.309226 59.7960807 34.4212623 59.8649515 34.5330588 59.9342118 34.6446141 60.0038606 34.7559267 60.0738975 34.8669955 60.1443216 34.9778187 60.2151321 35.0883957 60.2863276 35.1987245 60.3579077 35.3088042 60.4298711 35.418633 60.5022176 35.5282097 60.5749458 35.6375333 60.648055 35.7466021 60.7215442 35.8554151 60.7954128 35.9639707 60.8696594 36.0722674 60.9442837 36.1803043 61.0192843 36.28808 61.0946603 36.3955929 61.1704109 36.5028421 61.2465355 36.609826 61.3230327 36.7165435 61.3999019 36.822993 61.4771417 36.9291735 61.5547516 37.0350835 61.6327307 37.1407216 61.7110778 37.2460871 61.7897919 37.3511781 61.8688723 37.4559938 61.9483176 37.5605323 62.0281274 37.6647929 62.1083007 37.7687741 62.1888358 37.8724748 62.2697324 37.9758935 62.3509892 38.079029 62.4326056 38.1818801 62.51458 38.2844454 62.5969118 38.3867239 62.6796001 38.4887143 62.7626436 38.5904153 62.8460416 38.6918254 62.9297927 38.7929438 63.0138959 38.8937691 63.0983508 38.9943001 63.1831556 39.0945354 63.2683094 39.1944739 63.3538118 39.2941144 63.439661 39.3934558 63.5258562 39.4924968 63.6123968 39.5912358 63.699281 39.6896724 63.7865081 39.7878047 63.8740772 39.8856317 63.9619869 39.9831526 64.0502363 40.0803655 64.1388246 40.1772698 64.22775 40.2738639 64.3170121 40.370147 64.4066096 40.466118 64.4965415 40.5617751 64.5868063 40.6571176 64.6774032 40.7521445 64.7683313 40.8468542 64.859589 40.9412459 64.9511756 41.035318 65.0430898 41.12907 65.1353306 41.2225003 65.2278967 41.3156077 65.320787 41.4083914 65.4140006 41.5008501 65.5075363 41.5929829 65.6013925 41.6847882 65.6955686 41.7762652 65.7900634 41.8674128 65.8848756 41.9582298 65.9800037 42.0487149 66.0754472 42.1388674 66.1712046 42.228686 66.2672748 42.3181698 66.3636568 42.4073173 66.4603489 42.4961278 66.5573505 42.5845997 66.6546598 42.6727326 66.7522762 42.7605251 66.8501984 42.8479759 66.9484251 42.9350845 67.0469551 43.0218493 67.145787 43.1082696 67.2449199 43.1943441 67.3443526 43.2800718 67.4440836 43.3654517 67.5441118 43.4504829 67.6444365 43.5351643 67.7450555 43.6194946 67.8459683 43.7034729 67.9471736 43.7870986 68.0486698 43.8703698 68.1504562 43.9532864 68.252531 44.035847 68.3548932 44.1180506 68.4575418 44.1998961 68.5604751 44.2813825 68.6636921 44.3625091 68.7671916 44.4432746 68.8709721 44.5236783 68.9750326 44.6037188 69.0793717 44.6833956 69.1839881 44.7627073 69.2888805 44.8416533 69.3940477 44.9202324 69.4994887 44.9984438 69.6052016 45.0762865 69.7111854 45.1537594 69.817439 45.2308618 69.9239609 45.3075925 70.0307497 45.3839508 70.1378046 45.4599356 70.2451238 45.535546 70.352706 45.6107813 70.4605499 45.6856401 70.5686546 45.7601222 70.6770185 45.8342261 70.78564 45.9079512 70.8945181 45.9812962 71.0036516 46.0542607 71.113039 46.1268436 71.222679 46.1990438 71.3325702 46.270861 71.4427109 46.3422938 71.5531004 46.4133413 71.6637373 46.4840033 71.7746199 46.554278 71.8857469 46.6241652 71.9971171 46.693664 72.1087293 46.7627732 72.2205817 46.8314921 72.332673 46.8998201 72.4450023 46.9677563 72.5575679 47.0352998 72.6703684 47.1024495 72.7834023 47.1692049 72.8966686 47.2355651 73.0101659 47.3015293 73.1238923 47.3670969 73.2378469 47.4322667 73.3520281 47.4970382 73.4664349 47.5614106 73.5810652 47.6253829 73.6959182 47.6889546 73.8109922 47.7521247 73.9262859 47.8148925 74.0417977 47.8772571 74.1575265 47.939218 74.273471 48.0007744 74.3896294 48.0619257 74.5060003 48.1226707 74.6225825 48.1830089 74.7393745 48.2429395 74.8563749 48.3024621 74.9735823 48.3615753 75.090995 48.4202792 75.208612 48.4785726 75.3264317 48.5364546 75.4444525 48.593925 75.562673 48.6509828 75.6810919 48.7076274 75.7997078 48.7638581 75.9185191 48.819674 76.0375245 48.8750748 76.1567223 48.9300595 76.2761111 48.9846275 76.3956897 49.0387784 76.5154567 49.0925112 76.6354102 49.1458255 76.755549 49.1987206 76.8758717 49.2511955 76.9963766 49.30325 77.1170622 49.3548835 77.2379275 49.4060949 77.3589707 49.4568839 77.4801904 49.5072501 77.601585 49.5571923 77.723153 49.6067104 77.8448932 49.6558038 77.9668037 49.7044713 78.0888834 49.7527131 78.2111306 49.8005279 78.333544 49.8479158 78.4561218 49.8948756 78.5788628 49.9414073 78.7017654 49.9875099 78.824828 50.0331829 78.9480492 50.0784258 79.0714278 50.1232382 79.1949616 50.1676193 79.3186495 50.2115687 79.4424902 50.255086 79.5664819 50.2981704 79.6906231 50.3408214 79.8149123 50.3830389 79.939348 50.4248218 80.0639291 50.4661698 80.1886532 50.5070827 80.3135196 50.5475595 80.4385262 50.5876001 80.5636719 50.6272037 80.6889551 50.6663703 80.814374 50.7050988 80.9399271 50.743389 81.0656135 50.7812407 81.1914308 50.818653 81.3173781 50.8556258 81.4434535 50.8921587 81.5696555 50.9282507 81.6959828 50.9639019 81.8224336 50.9991114 81.9490063 51.0338795 82.0756999 51.0682051 82.2025123 51.1020878 82.3294422 51.1355278 82.4564878 51.168524 82.5836478 51.2010763 82.7109209 51.2331844 82.838305 51.264848 82.9657988 51.2960661 83.0934006 51.3268389 83.2211091 51.3571661 83.3489228 51.3870468 83.3735626 51.3927532"></polyline>
                <polyline id="Stroke-13" stroke="#000000" points="86.4208867 51.9661127 86.5508054 51.9848146 86.6807883 52.0030623 86.8108342 52.0208561 86.9409413 52.0381958 87.0711081 52.0550808 87.2013331 52.071511 87.3316147 52.0874865 87.4619513 52.1030067 87.5923408 52.1180719 87.7227825 52.1326813 87.8532741 52.146835 87.9838144 52.1605332 88.1144018 52.1737753 88.2450347 52.1865612 88.375711 52.1988907 88.5064298 52.2107637 88.6371892 52.2221801 88.7679876 52.23314 88.8988234 52.2436426 89.0296952 52.2536885 89.1606011 52.2632772 89.2915397 52.2724086 89.4225093 52.2810827 89.5535083 52.2892995 89.6845354 52.2970584 89.8155886 52.3043599 89.9466667 52.3112034 90.0777677 52.3175892 90.20889 52.323517 90.3400324 52.3289871 90.4711932 52.3339987 90.6023705 52.3385525 90.7335628 52.3426481 90.8647689 52.3462854 90.9959867 52.3494645 91.1272147 52.3521855 91.2584514 52.3544477 91.3896953 52.3562519 91.5209448 52.3575977 91.652198 52.358485 91.7834537 52.3589139 91.9147098 52.3588842 92.0459652 52.3583963 92.1772181 52.35745 92.3084668 52.3560452 92.4397098 52.3541821 92.5709457 52.3518606 92.7021726 52.3490809 92.8333889 52.3458428 92.9645931 52.3421463 93.0957837 52.3379917 93.2269589 52.333379 93.3581175 52.3283081 93.4892574 52.3227794 93.6203771 52.3167925 93.7514753 52.3103476 93.88255 52.303445 94.0136 52.2960846 94.1446234 52.2882667 94.2756191 52.2799912 94.4065847 52.2712581 94.5375191 52.2620678 94.6684207 52.2524202 94.799288 52.2423156 94.930119 52.231754 95.0609126 52.2207354 95.1916668 52.2092601 95.3223802 52.1973283 95.4530512 52.1849399 95.5836782 52.1720953 95.7142593 52.1587946 95.8447936 52.1450377 95.975279 52.1308252 96.1057139 52.1161569 96.2360969 52.1010333 96.3664264 52.0854544 96.4967007 52.0694205 96.6269182 52.0529316 96.7570774 52.035988 96.8871769 52.0185899 97.0172148 52.0007376 97.1471896 51.9824312 97.2770997 51.9636709 97.4069436 51.9444571 97.5367197 51.9247899 97.6664261 51.9046697 97.796062 51.8840965 97.925625 51.8630708 98.0219962 51.8471299"></polyline>
                <polyline id="Stroke-14" stroke="#000000" points="37.3873926 74.1129527 37.4869843 73.9163433 37.5858893 73.7193875 37.6841064 73.5220874 37.7816348 73.3244455 37.8784731 73.1264643 37.9746199 72.928146 38.0700744 72.7294928 38.164835 72.5305077 38.2589012 72.3311929 38.3522711 72.131551 38.4449441 71.9315838 38.5369189 71.7312944 38.6281944 71.5306848 38.7187692 71.3297578 38.8086427 71.1285158 38.8978135 70.9269611 38.9862808 70.7250959 39.0740429 70.5229232 39.1610994 70.3204452 39.247449 70.1176644 39.3330905 69.914583 39.4180228 69.711204 39.5022453 69.5075296 39.5857567 69.3035624 39.668556 69.0993046 39.7506421 68.8947587 39.8320139 68.6899277 39.9126708 68.4848137 39.9926118 68.279419 40.0718353 68.0737466 40.1503411 67.8677985 40.2281278 67.6615778 40.3051948 67.4550866 40.3815406 67.2483275 40.4571646 67.0413028 40.532066 66.8340155 40.6062437 66.6264677 40.679697 66.4186622 40.7524248 66.2106013 40.8244262 66.0022878 40.8957005 65.793724 40.9662467 65.5849127 41.0360641 65.3758561 41.1051516 65.1665572 41.1735083 64.9570178 41.2411337 64.7472415 41.308027 64.5372299 41.374187 64.326986 41.4396131 64.1165126 41.5043046 63.9058118 41.5682607 63.6948864 41.6314805 63.4837388 41.6939629 63.2723718 41.7557079 63.0607876 41.8167142 62.8489894 41.8769815 62.6369791 41.9365084 62.4247599 41.9952947 62.212334 42.0533394 61.999704 42.1106421 61.7868727 42.1672019 61.5738424 42.2230182 61.3606159 42.2780901 61.1471958 42.3324171 60.9335849 42.3859987 60.7197852 42.4388339 60.5057999 42.4909222 60.2916313 42.5422631 60.0772819 42.592856 59.8627548 42.6427 59.6480521 42.6917948 59.4331769 42.7401393 59.2181312 42.7877335 59.002918 42.8345766 58.7875401 42.880668 58.5719997 42.9260071 58.3562998 42.9705934 58.140443 43.0144262 57.9244315 43.0575054 57.7082683 43.09983 57.491956 43.1413998 57.2754974 43.1822142 57.0588945 43.2222724 56.8421507 43.2615746 56.6252683 43.3001194 56.4082498 43.3379072 56.191098 43.3749372 55.9738159 43.4112088 55.7564053 43.4467216 55.5388697 43.4814753 55.3212113 43.5154696 55.1034328 43.5487038 54.8855369 43.5811774 54.6675261 43.6128905 54.4494034 43.6438424 54.2311713 43.6740325 54.0128325 43.7034608 53.7943895 43.7321269 53.5758449 43.7600305 53.3572017 43.7871708 53.1384624 43.813548 52.9196295 43.8391616 52.7007059 43.8640114 52.4816942 43.8880966 52.2625968 43.9114175 52.0434169 43.9339735 51.8241568 43.9557646 51.6048193 43.97679 51.385407 43.9970502 51.1659227 44.0165442 50.9463689 44.0352723 50.7267482 44.053234 50.5070637 44.0704292 50.2873177 44.0868577 50.0675127 44.1025192 49.8476519 44.1174134 49.6277378 44.1315406 49.4077729 44.1448999 49.1877601 44.1574919 48.967702 44.1693158 48.7476013 44.1803722 48.5274607 44.1906601 48.3072826 44.2001798 48.08707 44.2089314 47.8668253 44.2169143 47.6465517 44.2241288 47.4262515 44.2305746 47.2059274 44.2362519 46.9855821 44.2411603 46.7652184 44.2452999 46.5448388 44.2486705 46.3244461 44.2512722 46.104043 44.2531051 45.8836322 44.2541691 45.6632163 44.2544638 45.4427978 44.2539897 45.2223799 44.2527464 45.0019649 44.2507344 44.7815555 44.2479534 44.5611546 44.2444034 44.3407648 44.2400847 44.1203885 44.234997 43.9000291 44.2291406 43.6796883 44.2225155 43.4593696 44.2151219 43.2390753 44.2069596 43.018808 44.198029 42.7985707 44.1883301 42.578366 44.1778629 42.3581964 44.1666278 42.1380649 44.1546245 41.9179738 44.1418537 41.6979259 44.1283153 41.4779239 44.1140093 41.2579707 44.098936 41.0380687 44.0830957 40.818221 44.0664885 40.5984296 44.0491147 40.3786978 44.0309743 40.1590277 44.0120676 39.9394223 43.9923949 39.7198847 43.9719562 39.5004168 43.9507522 39.2810215 43.928783 39.0617018 43.9060484 38.8424602 43.8825494 38.6232993 43.8582859 38.4042218 43.8332579 38.1852304 43.8074663 37.9663275 43.7809112 37.7475165 43.7535927 37.5287993 43.7255114 37.3101788 43.6966677 37.0916577 43.6670617 36.8732388 43.6366939 36.6549244 43.6055644 36.4367175 43.5736742 36.2186209 43.5410229 36.0006368 43.5076117 35.7827678 43.4734402 35.5650173 43.4385094 35.347387 43.4028196 35.1298803 43.3663712 34.9124995 43.3291646 34.6952474 43.2912003 34.4781266 43.2524787 34.2611395 43.2130003 34.0442892 43.1727656 33.827578 43.1317752 33.6110088 43.0900295 33.3945839 43.0475286 33.1783059 43.0042738 32.9621782 42.9602652 32.7462024 42.9155033 32.5303819 42.8699888 32.3147188 42.823722 32.0992161 42.7767038 31.8838765 42.7289348 31.6687021 42.6804152 31.4536959 42.6311455 31.2388606 42.581127 31.0241988 42.5303596 30.8097127 42.4788445 30.5954053 42.4265819 30.3812793 42.3735727 30.167337 42.3198172 29.9535812 42.2653164 29.7400143 42.2100708 29.5266392 42.1540811 29.3134581 42.0973483 29.100474 42.0398724 28.8876895 41.9816545 28.6751069 41.9226954 28.4627289 41.8629959 28.2505582 41.8025564 28.0385972 41.7413778 27.8268486 41.6794609 27.6153149 41.6168061 27.4039989 41.5534147 27.1929029 41.4892871 26.9820294 41.4244246 26.7713813 41.358827 26.5609612 41.2924962 26.3507712 41.225432 26.1408143 41.157636 25.9310929 41.0891087 25.7216097 41.0198509 25.5123669 40.9498638 25.3033674 40.8791477 25.0946133 40.8077039 24.8861079 40.7355328 24.677853 40.662636 24.4698514 40.5890136 24.2621057 40.514667 24.0546186 40.439597 23.847392 40.3638045 23.6404294 40.2872906 23.4337323 40.2100559 23.2273038 40.1321015 23.0211465 40.0534282 22.8152626 39.9740372 22.6096545 39.8939294 22.4043253 39.8131056 22.1992768 39.7315672 21.9945121 39.6493144 21.7900332 39.5663491 21.5858431 39.482672 21.3819436 39.398284 21.1783378 39.3131859 20.975028 39.2273792 20.7720167 39.140865 20.5693062 39.0536439 20.3668993 38.9657172 20.164798 38.8770858 19.9630052 38.7877512 19.761523 38.697714 19.5603542 38.6069757 19.3595008 38.515537 19.1589659 38.4233992 18.9587512 38.3305637 18.7588598 38.2370313 18.5592938 38.1428031 18.3600555 38.0478807 18.1611478 37.9522647 17.9625727 37.8559564 17.7643326 37.7589574 17.5664301 37.6612682 17.3688679 37.5628907 17.1716478 37.4638255 16.9747725 37.3640741 16.7782445 37.2636376 16.5820659 37.1625173 16.3862395 37.0607145 16.1907672 36.9582302 15.9956518 36.8550659 15.8008956 36.7512228 15.6065009 36.6467021 15.4124698 36.5415051 15.2188051 36.4356332 15.0255089 36.3290875 14.8325837 36.2218695 14.6400317 36.1139801 14.4478556 36.0054213 14.2560571 35.8961938 14.0646393 35.7862989 13.873604 35.6757386 13.6829536 35.5645135 13.4926905 35.4526256 13.3028169 35.3400756 13.1133354 35.2268654 12.9242483 35.1129964 12.7355574 34.9984695 12.5472655 34.8832867 12.3593747 34.7674487 12.1718873 34.6509577 11.9848058 34.5338144 11.7981321 34.4160206 11.6118688 34.2975779 11.4260177 34.1784875 11.2405817 34.0587507 11.0555627 33.9383691 10.870963 33.8173443 10.6867848 33.6956778 10.5030305 33.5733708 10.3197022 33.450425 10.1368023 33.3268419 9.95433278 33.2026229 9.77229586 33.0777696 9.5906941 32.9522836 9.40952948 32.8261662 9.22880429 32.6994191 9.04852049 32.5720437 8.86868037 32.4440419 8.68928647 32.3154147 8.51034049 32.1861642 8.33184498 32.0562917 8.15380193 31.9257987 7.97621361 31.7946872 7.79908199 31.6629583 7.62240936 31.5306139 7.44619797 31.3976556 7.27044981 31.2640849 7.09516715 31.1299034 6.92035198 30.9951129 6.74600655 30.859715 6.57213315 30.7237112 6.39873346 30.5871034 6.22580976 30.4498932 6.05336432 30.3120821 5.88139912 30.1736719 5.70991643 30.0346645 5.53891794 29.8950612 5.36840594 29.7548637 5.19838268 29.614074 5.02885015 29.4726939 4.85981033 29.3307247 4.69126521 29.1881684 4.52321706 29.0450267 4.35566786 28.9013013 4.18861959 28.7569939 4.02207425 28.6121065 3.85603381 28.4666406 3.69050054 28.3205983 3.52547643 28.1739808 3.36096318 28.0267905 3.19696305 27.8790289 3.03347803 27.7306977 2.87051011 27.5817991 2.70806098 27.4323343 2.54613321 27.2823057 2.38472819 27.1317149 2.22384821 26.9805637 2.06349524 26.828854 1.903671 26.6765878 1.74437774 26.5237665 1.58561716 26.3703925 1.42739126 26.2164671 1.26970202 26.0619928 1.11255141 25.9069711 0.955941146 25.7695676 0.81803928"></polyline>
                <polyline id="Stroke-15" stroke="#000000" points="23.1105148 23.4104004 23.0128947 23.607997 22.9159648 23.8059331 22.8197257 24.0042067 22.7241791 24.2028153 22.6293258 24.4017562 22.5351673 24.6010273 22.4417044 24.8006259 22.3489388 25.00055 22.256871 25.2007966 22.1655023 25.4013636 22.074834 25.6022484 21.984867 25.8034488 21.8956027 26.0049621 21.8070419 26.2067861 21.7191858 26.408918 21.6320352 26.6113555 21.5455915 26.8140961 21.4598556 27.0171374 21.3748287 27.220477 21.2905118 27.4241123 21.2069056 27.6280407 21.1240116 27.8322599 21.0418306 28.0367675 20.9603633 28.2415609 20.8796111 28.4466374 20.799575 28.6519947 20.7202557 28.8576303 20.6416544 29.0635417 20.563772 29.2697265 20.4866092 29.476182 20.4101673 29.6829056 20.334447 29.8898949 20.2594493 30.0971473 20.1851752 30.3046605 20.1116256 30.512432 20.0388011 30.7204589 19.9667028 30.9287389 19.8953319 31.1372696 19.8246885 31.3460483 19.7547743 31.5550722 19.6855896 31.7643391 19.6171354 31.9738465 19.5494125 32.1835916 19.4824217 32.3935718 19.416164 32.603785 19.3506401 32.8142281 19.2858509 33.0248986 19.221797 33.2357944 19.1584792 33.4469126 19.0958984 33.6582504 19.0340552 33.8698057 18.9729506 34.0815758 18.9125849 34.2935578 18.8529594 34.5057495 18.7940745 34.7181481 18.7359309 34.9307509 18.6785293 35.1435556 18.6218706 35.3565595 18.5659555 35.5697599 18.5107844 35.7831545 18.4563579 35.9967404 18.4026772 36.2105149 18.3497425 36.4244756 18.2975547 36.63862 18.2461144 36.8529453 18.1954218 37.0674492 18.1454781 37.2821286 18.0962835 37.4969812 18.047839 37.7120042 18.000145 37.927195 17.9532019 38.1425514 17.9070105 38.3580702 17.8615711 38.5737489 17.8168845 38.7895852 17.7729513 39.0055761 17.7297719 39.2217194 17.6873467 39.4380119 17.6456766 39.6544512 17.6047616 39.8710351 17.5646025 40.0877602 17.5251998 40.3046245 17.4865541 40.5216248 17.4486654 40.738759 17.4115345 40.9560242 17.3751621 41.1734177 17.3395481 41.3909369 17.3046933 41.6085791 17.2705981 41.8263417 17.2372625 42.0442221 17.2046874 42.2622175 17.1728731 42.4803255 17.1418202 42.6985432 17.1115285 42.916868 17.0819985 43.1352975 17.053231 43.3538287 17.025226 43.5724589 16.997984 43.7911854 16.9715053 44.0100061 16.94579 44.2289178 16.9208385 44.4479179 16.8966515 44.6670039 16.8732287 44.886173 16.8505709 45.1054226 16.8286781 45.3247499 16.8075507 45.5441526 16.7871885 45.7636276 16.7675925 45.9831723 16.7487624 46.202784 16.7306987 46.4224602 16.7134015 46.6421983 16.696871 46.8619953 16.6811075 47.0818488 16.666111 47.3017561 16.6518818 47.5217145 16.6384199 47.741721 16.6257259 47.9617732 16.6137997 48.1818684 16.6026414 48.402004 16.5922509 48.6221772 16.5826289 48.8423853 16.5737752 49.0626257 16.5656898 49.2828956 16.558373 49.5031928 16.551825 49.7235137 16.5460453 49.9438565 16.5410347 50.1642179 16.5367928 50.3845956 16.5333195 50.6049865 16.5306153 50.8253885 16.5286804 51.0457985 16.5275141 51.2662138 16.5271169 51.486632 16.5274886 51.7070502 16.5286294 51.9274658 16.5305391 52.1478758 16.5332178 52.3682781 16.5366653 52.5886696 16.540882 52.8090478 16.5458671 53.0294098 16.5516212 53.2497531 16.5581441 53.4700749 16.5654353 53.6903726 16.5734953 53.9106437 16.5823237 54.1308849 16.5919202 54.3510942 16.6022852 54.5712685 16.613418 54.7914055 16.625319 55.0115022 16.6379875 55.2315558 16.6514239 55.451564 16.6656276 55.6715238 16.6805986 55.8914328 16.6963369 56.1112882 16.7128422 56.331087 16.7301139 56.550827 16.7481524 56.7705056 16.766957 56.9901195 16.7865278 57.2096664 16.8068644 57.4291437 16.8279667 57.6485487 16.8498339 57.8678785 16.8724665 58.0871309 16.8958638 58.3063026 16.9200259 58.5253915 16.9449518 58.7443944 16.9706417 58.9633092 16.9970954 59.1821327 17.0243122 59.4008627 17.052292 59.619496 17.0810343 59.8380306 17.1105388 60.0564632 17.1408052 60.2747917 17.1718332 60.4930131 17.2036223 60.7111245 17.2361722 60.9291239 17.2694825 61.1470082 17.3035525 61.3647748 17.3383822 61.582421 17.3739712 61.7999444 17.4103187 62.0173419 17.4474241 62.2346113 17.4852878 62.45175 17.5239086 62.6687549 17.5632861 62.8856234 17.6034202 63.1023533 17.64431 63.3189418 17.6859555 63.5353862 17.7283555 63.7516835 17.77151 63.9678317 17.8154185 64.1838276 17.8600801 64.399669 17.9054943 64.6153531 17.9516611 64.8308773 17.9985792 65.0462391 18.0462486 65.2614356 18.0946682 65.4764642 18.1438378 65.6913225 18.1937569 65.9060075 18.2444245 66.1205171 18.2958402 66.3348484 18.3480033 66.5489987 18.4009131 66.7629657 18.4545691 66.9767464 18.508971 67.1903386 18.5641174 67.4037394 18.6200079 67.6169463 18.6766419 67.8299568 18.7340189 68.0427682 18.7921382 68.2553778 18.8509984 68.4677833 18.9105996 68.6799818 18.9709405 68.8919708 19.0320208 69.1037478 19.0938396 69.3153101 19.1563961 69.5266553 19.2196895 69.7377808 19.283719 69.9486841 19.3484838 70.1593622 19.4139836 70.369813 19.480217 70.5800336 19.5471834 70.7900217 19.6148819 70.9997745 19.6833121 71.2092897 19.7524727 71.4185648 19.8223629 71.6275967 19.8929818 71.8363837 19.964329 72.0449223 20.0364032 72.2532108 20.1092036 72.4612462 20.1827291 72.6690259 20.2569794 72.8765479 20.331953 73.0838091 20.4076495 73.2908072 20.4840676 73.4975396 20.5612063 73.7040039 20.6390649 73.9101977 20.7176427 74.1161182 20.7969382 74.3217629 20.8769505 74.5271295 20.9576792 74.7322154 21.0391227 74.9370181 21.1212802 75.141535 21.2041506 75.345764 21.2877331 75.549702 21.3720264 75.7533472 21.4570301 75.9566964 21.5427425 76.1597477 21.6291626 76.3624985 21.7162897 76.5649459 21.8041226 76.767088 21.8926602 76.9689222 21.9819013 77.1704457 22.071845 77.3716566 22.1624901 77.5725519 22.2538356 77.7731294 22.3458801 77.9733868 22.438623 78.1733213 22.5320627 78.372931 22.6261983 78.5722129 22.7210283 78.7711648 22.816552 78.9697845 22.9127681 79.1680691 23.0096753 79.3660166 23.1072728 79.5636245 23.2055587 79.7608902 23.3045324 79.9578115 23.4041926 80.154386 23.4813616 80.3054395"></polyline>
                <polyline id="Stroke-16" stroke="#000000" points="29.2906815 76.4304808 29.3760932 76.2273028 29.4607955 76.0238277 29.5447874 75.8200581 29.6280681 75.6159962 29.7106361 75.4116448 29.7924908 75.2070062 29.8736308 75.002083 29.9540557 74.7968778 30.033764 74.591393 30.1127552 74.3856306 30.1910278 74.1795942 30.2685813 73.9732852 30.3454142 73.7667067 30.4215264 73.5598614 30.4969163 73.3527514 30.5715831 73.1453791 30.6455259 72.9377477 30.718744 72.7298591 30.7912364 72.521716 30.863002 72.3133211 30.9340403 72.1046768 31.0043504 71.8957855 31.073931 71.6866501 31.1427816 71.477273 31.2109014 71.2676565 31.2782894 71.0578036 31.344945 70.8477163 31.4108673 70.6373979 31.4760551 70.4268502 31.5405082 70.2160762 31.6042255 70.0050786 31.6672064 69.7938595 31.72945 69.5824219 31.7909556 69.370768 31.8517221 69.1589009 31.9117494 68.9468226 31.9710361 68.7345359 32.0295821 68.5220437 32.0873863 68.3093482 32.1444482 68.096452 32.2007671 67.8833579 32.2563419 67.6700682 32.3111725 67.456586 32.3652578 67.2429136 32.4185974 67.0290532 32.4711906 66.8150083 32.5230367 66.6007808 32.574135 66.3863736 32.6244851 66.1717892 32.6740862 65.9570301 32.7229376 65.7420993 32.7710391 65.5269992 32.8183896 65.3117324 32.864989 65.0963015 32.9108365 64.8807089 32.9559316 64.6649579 33.0002736 64.4490505 33.0438622 64.2329896 33.0866969 64.0167779 33.1287767 63.8004177 33.1701014 63.583912 33.2106707 63.3672632 33.2504838 63.1504741 33.2895406 62.9335474 33.3278401 62.7164855 33.3653822 62.499291 33.402166 62.2819669 33.4381916 62.0645155 33.4734585 61.8469396 33.5079659 61.6292421 33.5417138 61.4114253 33.5747014 61.193492 33.6069285 60.9754447 33.6383946 60.7572862 33.6690996 60.5390189 33.699043 60.3206462 33.7282242 60.10217 33.7566429 59.8835931 33.7842989 59.6649184 33.8111921 59.4461485 33.8373214 59.2272858 33.8626874 59.0083333 33.8872892 58.7892935 33.9111268 58.5701692 33.9341997 58.350963 33.9565076 58.1316776 33.9780504 57.9123155 33.9988277 57.6928793 34.0188396 57.4733723 34.0380851 57.2537964 34.0565648 57.034155 34.0742779 56.8144501 34.0912247 56.5946845 34.1074044 56.3748614 34.1228171 56.154983 34.1374625 55.9350522 34.1513407 55.7150714 34.1644515 55.4950436 34.1767942 55.2749713 34.1883693 55.0548573 34.1991763 54.8347042 34.2092154 54.6145148 34.2184861 54.3942914 34.2269884 54.1740374 34.2347222 53.9537547 34.2416874 53.7334463 34.2478841 53.5131151 34.2533118 53.2927636 34.2579711 53.0723942 34.2618614 52.8520103 34.2649827 52.631614 34.267335 52.411208 34.2689186 52.1907952 34.2697329 51.9703781 34.2697786 51.7499597 34.2690549 51.5295424 34.2675625 51.309129 34.2653012 51.0887219 34.2622705 50.8683244 34.2584715 50.6479386 34.2539031 50.4275675 34.2485664 50.2072136 34.2424606 49.9868799 34.2355864 49.7665689 34.2279433 49.5462829 34.2195319 49.3260251 34.2103522 49.105798 34.2004043 48.8856044 34.189688 48.665447 34.1782038 48.4453282 34.1659518 48.2252508 34.1529319 48.0052176 34.1391445 47.7852312 34.1245897 47.5652944 34.1092679 47.3454095 34.0931789 47.1255796 34.0763228 46.9058075 34.0587006 46.6860952 34.0403116 46.4664459 34.0211565 46.2468623 34.0012353 46.0273468 33.9805487 45.8079022 33.9590962 45.5885312 33.9368787 45.3692365 33.9138965 45.1500209 33.8901493 44.9308867 33.8656379 44.7118367 33.8403625 44.4928737 33.8143233 44.2740006 33.7875205 44.0552193 33.7599547 43.8365333 33.731626 43.6179448 33.7025349 43.3994566 33.6726819 43.1810711 33.642067 42.9627914 33.6106911 42.7446202 33.5785537 42.5265595 33.5456562 42.3086126 33.5119982 42.0907816 33.4775808 41.8730699 33.4424038 41.6554793 33.406468 41.4380132 33.3697734 41.2206741 33.3323211 41.0034642 33.2941112 40.7863865 33.2551442 40.5694434 33.2154204 40.3526378 33.1749406 40.1359722 33.1337052 39.9194495 33.0917146 39.703072 33.0489695 39.4868425 33.0054701 39.2707638 32.9612171 39.0548381 32.9162112 38.8390682 32.8704525 38.6234569 32.823942 38.4080067 32.7766804 38.1927204 32.7286677 37.9776004 32.6799049 37.7626495 32.6303925 37.54787 32.5801309 37.3332649 32.5291212 37.1188364 32.4773635 36.9045876 32.4248587 36.6905209 32.3716072 36.4766387 32.31761 36.2629439 32.2628679 36.0494387 32.2073809 35.8361264 32.1511501 35.623009 32.094176 35.4100893 32.0364597 35.19737 31.9780015 34.9848534 31.9188021 34.7725423 31.8588626 34.5604393 31.7981833 34.348547 31.7367651 34.1368678 31.674609 33.9254044 31.6117154 33.7141593 31.5480851 33.5031353 31.483719 33.2923347 31.4186178 33.0817603 31.3527825 32.8714144 31.2862137 32.6612999 31.2189124 32.4514189 31.1508792 32.2417744 31.0821147 32.0323689 31.0126204 31.8232046 30.9423967 31.6142844 30.8714445 31.4056109 30.799765 31.1971862 30.7273584 30.9890133 30.6542262 30.7810945 30.5803689 30.5734321 30.5057877 30.3660292 30.4304834 30.1588883 30.3544569 29.9520112 30.2777089 29.7454009 30.2002407 29.5390603 30.1220531 29.3329912 30.0431469 29.1271966 29.9635233 28.9216786 29.8831834 28.7164402 29.8021278 28.5114835 29.7203576 28.3068112 29.6378737 28.1024255 29.5546774 27.8983293 29.4707697 27.6945251 29.3861513 27.4910148 29.3008235 27.2878017 29.2147873 27.0848876 29.1280436 26.8822752 29.0405935 26.6799669 28.9524381 26.4779655 28.8635787 26.2762733 28.774016 26.0748923 28.6837515 25.8738255 28.592786 25.6730751 28.5011206 25.4726439 28.4087565 25.2725339 28.3156948 25.0727476 28.2219366 24.8732877 28.1274832 24.6741563 28.0323355 24.475356 27.936495 24.2768894 27.8399627 24.0787585 27.7427395 23.880966 27.644827 23.6835143 27.5462262 23.486406 27.4469387 23.2896429 27.3469648 23.093228 27.2463064 22.8971634 27.1449649 22.7014516 27.0429408 22.5060949 26.9402361 22.3110955 26.8368516 22.1164563 26.7327886 21.9221792 26.6280483 21.7282667 26.5949173 21.667264"></polyline>
                <path d="M0.268710517,119.885918 L0.268710517,149.652888" id="Stroke-17" stroke="#000000"></path>
                <path d="M54.7500108,20.9212873 L85.5638072,33.2534219" id="Stroke-18" stroke="#000000"></path>
                <polyline id="Stroke-19" stroke="#000000" points="98.0219959 51.8471299 97.9730334 51.7043471 97.9235728 51.5617358 97.8736149 51.4192983 97.8231603 51.2770363 97.7722099 51.1349511 97.7207639 50.9930449 97.6688235 50.851319 97.6163886 50.7097756 97.5634605 50.5684162 97.5100393 50.4272423 97.4561259 50.286256 97.401721 50.1454588 97.3468253 50.0048527 97.2914394 49.8644388 97.2355639 49.7242193 97.1791997 49.5841961 97.1223469 49.4443701 97.0650071 49.304744 97.0071802 49.1653187 96.9488674 49.0260963 96.8900692 48.8870786 96.8307865 48.7482667 96.7710196 48.6096629 96.7107699 48.4712689 96.6500373 48.3330858 96.5888231 48.1951159 96.527128 48.0573606 96.4649527 47.9198213 96.4022979 47.7825003 96.3391646 47.645399 96.275553 47.5085189 96.2114645 47.3718619 96.1468995 47.2354293 96.081859 47.0992233 96.0163436 46.9632453 95.9503544 46.8274968 95.8838918 46.6919797 95.8169569 46.5566954 95.7495505 46.4216458 95.6816732 46.2868323 95.613326 46.1522569 95.5445097 46.0179209 95.4752253 45.8838261 95.4054734 45.7499742 95.3352551 45.6163664 95.2645709 45.483005 95.1934218 45.3498911 95.1218089 45.2170267 95.0497327 45.0844128 94.9771944 44.9520519 94.9041948 44.8199449 94.8307348 44.6880937 94.7568151 44.5564999 94.6824371 44.4251652 94.6076009 44.2940907 94.5323082 44.1632788 94.4565593 44.0327302 94.3803556 43.9024473 94.3036978 43.7724311 94.2265869 43.6426837 94.1490238 43.5132062 94.0710093 43.3840005 93.9925445 43.2550678 93.9136307 43.1264102 93.8342684 42.9980289 93.7544583 42.8699255 93.6742023 42.7421016 93.5935006 42.6145589 93.5123543 42.4872989 93.4307646 42.3603229 93.3487326 42.2336327 93.2662589 42.1072297 93.1833448 41.9811155 93.099991 41.855292 93.0161989 41.7297598 92.9319696 41.6045214 92.8473036 41.4795778 92.7622021 41.3549308 92.6766666 41.2305816 92.5906975 41.1065319 92.5042964 40.9827835 92.4174637 40.8593374 92.3302012 40.7361954 92.2425097 40.6133587 92.1543898 40.4908291 92.0658432 40.3686082 91.9768707 40.2466971 91.8874734 40.1250973 91.7976526 40.0038108 91.7074091 39.8828387 91.6167439 39.7621824 91.5256585 39.6418436 91.4341538 39.5218235 91.3422308 39.4021237 91.2498908 39.282746 91.1571351 39.1636911 91.0639643 39.0449612 90.9703802 38.9265572 90.8763832 38.8084807 90.781975 38.6907337 90.6871566 38.5733166 90.591929 38.4562318 90.4962937 38.33948 90.4002516 38.2230628 90.3038039 38.1069821 90.2069519 37.9912388 90.1096965 37.8758342 90.0120393 37.7607704 89.9139811 37.6460483 89.8155234 37.5316691 89.7166671 37.4176347 89.6174135 37.3039461 89.5177641 37.1906048 89.4177197 37.0776125 89.317282 36.9649701 89.2164516 36.8526791 89.1152302 36.7407412 89.0136189 36.6291573 88.9116189 36.5179289 88.8092313 36.4070577 88.7064577 36.2965446 88.6032991 36.1863909 88.4997568 36.0765984 88.3958323 35.9671682 88.2915265 35.8581015 88.1868409 35.7493999 88.0817765 35.6410645 87.976335 35.5330966 87.8705172 35.4254978 87.7643249 35.318269 87.6577593 35.2114121 87.5508212 35.1049277 87.4435125 34.9988175 87.335834 34.8930827 87.2277874 34.7877249 87.1193739 34.6827447 87.0105949 34.5781439 86.9014515 34.4739238 86.7919452 34.3700855 86.6820773 34.26663 86.5718492 34.1635592 86.4612622 34.0608739 86.3503176 33.9585753 86.2390166 33.8566648 86.1273611 33.7551439 86.0153517 33.6540136 85.9029904 33.5532748 85.7902783 33.4529292 85.6772166 33.3529779 85.5638072 33.2534219"></polyline>
                <polyline id="Stroke-20" stroke="#000000" points="74.8880119 82.3278 75.0162937 82.1486063 75.1439492 81.9689655 75.2709778 81.7888801 75.397377 81.6083519 75.5231456 81.4273835 75.6482822 81.2459771 75.7727851 81.0641343 75.8966527 80.8818581 76.0198839 80.6991505 76.1424767 80.5160136 76.26443 80.3324495 76.3857421 80.1484607 76.5064113 79.9640492 76.6264368 79.7792176 76.7458165 79.5939678 76.864549 79.4083021 76.9826333 79.2222229 77.1000679 79.0357325 77.2168507 78.8488331 77.3329811 78.6615268 77.4484569 78.4738163 77.5632776 78.2857035 77.677441 78.097191 77.7909461 77.9082808 77.9037914 77.7189753 78.0159756 77.5292769 78.1274974 77.3391879 78.2383553 77.1487105 78.3485479 76.9578469 78.4580741 76.7665998 78.5669324 76.5749714 78.6751212 76.3829637 78.7826396 76.1905798 78.8894865 75.9978211 78.9956599 75.8046907 79.1011589 75.6111904 79.2059822 75.4173229 79.3101285 75.2230906 79.4135969 75.0284957 79.5163851 74.8335407 79.6184931 74.6382278 79.7199188 74.4425595 79.8206611 74.2465381 79.9207191 74.0501662 80.0200914 73.853446 80.1187769 73.6563799 80.2167741 73.4589701 80.314082 73.2612196 80.4106994 73.0631304 80.5066251 72.8647049 80.601858 72.6659455 80.6963971 72.4668549 80.7902408 72.2674352 80.8833881 72.0676889 80.975838 71.8676186 81.0675895 71.6672265 81.1586412 71.4665155 81.2489921 71.2654875 81.3386413 71.0641451 81.4275874 70.8624909 81.5158294 70.6605274 81.6033662 70.4582566 81.6901969 70.2556816 81.7763201 70.0528047 81.8617352 69.8496281 81.9464409 69.6461541 82.0304362 69.4423859 82.1137203 69.2383254 82.1962918 69.0339754 82.2781498 68.8293383 82.3592932 68.6244165 82.4397215 68.4192124 82.5194332 68.213729 82.5984278 68.0079681 82.6767038 67.8019327 82.7542604 67.5956252 82.8310971 67.3890481 82.9072126 67.1822037 82.9826059 66.9750951 83.0572761 66.7677242 83.1312223 66.5600936 83.2044438 66.3522062 83.2769396 66.1440645 83.3487089 65.9356708 83.4197506 65.7270275 83.4900639 65.5181377 83.559648 65.3090032 83.6285023 65.0996271 83.6966253 64.8900118 83.764017 64.6801601 83.830676 64.4700742 83.8966016 64.2597566 83.9617932 64.04921 84.0262497 63.8384372 84.0899704 63.6274404 84.1529547 63.4162225 84.2152017 63.204786 84.2767106 62.9931332 84.3374809 62.781267 84.3975116 62.5691895 84.4568019 62.3569039 84.5153513 62.1444126 84.5731592 61.9317179 84.6302245 61.7188229 84.6865468 61.5057296 84.7421253 61.2924411 84.7969593 61.0789597 84.8510483 60.8652879 84.9043913 60.6514287 84.9569879 60.4373846 85.0088377 60.2231579 85.0599394 60.0087516 85.1102931 59.794168 85.1598977 59.5794098 85.2087528 59.3644798 85.2568579 59.1493803 85.3042118 58.9341143 85.3508149 58.7186843 85.396666 58.5030926 85.4417646 58.2873422 85.4861103 58.0714355 85.5297023 57.8553755 85.5725403 57.6391644 85.6146238 57.422805 85.6559522 57.2062999 85.696525 56.9896517 85.7363417 56.7728634 85.7754019 56.555937 85.8137051 56.3388757 85.8512506 56.121682 85.8880384 55.9043585 85.9240674 55.6869079 85.9593379 55.4693326 85.9938491 55.2516354 86.0276003 55.0338192 86.0605916 54.8158864 86.0928222 54.5978397 86.1242922 54.3796818 86.1550006 54.1614151 86.1849474 53.9430426 86.2141323 53.7245669 86.2425547 53.5059906 86.2702143 53.2873162 86.2971109 53.0685469 86.3232442 52.8496848 86.3486136 52.6307326 86.3732191 52.4116933 86.3970601 52.1925693 86.4201367 51.9733633 86.4208867 51.9661127"></polyline>
                <polyline id="Stroke-21" stroke="#000000" points="93.7718533 119.885918 93.7715683 119.722637 93.770714 119.559358 93.7692896 119.396083 93.767296 119.232814 93.7647326 119.069552 93.7615997 118.906301 93.7578973 118.743062 93.7536253 118.579837 93.7487841 118.416627 93.7433734 118.253436 93.7373935 118.090264 93.730844 117.927114 93.7237258 117.763988 93.7160382 117.600888 93.7077819 117.437816 93.6989566 117.274774 93.6895623 117.111763 93.6795997 116.948787 93.6690684 116.785846 93.6579688 116.622942 93.6463007 116.460079 93.6340648 116.297257 93.6212606 116.134479 93.6078888 115.971747 93.5939494 115.809063 93.5794423 115.646428 93.5643682 115.483845 93.5487265 115.321315 93.5325181 115.158841 93.5157431 114.996425 93.4984017 114.834068 93.4804936 114.671773 93.4620196 114.509541 93.4429795 114.347375 93.4233742 114.185276 93.403203 114.023247 93.3824669 113.861289 93.361166 113.699405 93.3393001 113.537596 93.3168702 113.375864 93.293876 113.214212 93.2703178 113.052641 93.2461962 112.891153 93.2215114 112.72975 93.1962638 112.568435 93.1704533 112.407209 93.1440806 112.246074 93.117146 112.085032 93.0896496 111.924085 93.0615918 111.763235 93.0329731 111.602484 93.0037936 111.441834 92.9740539 111.281287 92.9437544 111.120845 92.9128952 110.960509 92.8814767 110.800282 92.8494995 110.640166 92.8169641 110.480163 92.7838705 110.320274 92.7502193 110.160502 92.7160107 110.000848 92.6812454 109.841315 92.6459239 109.681904 92.6100465 109.522617 92.5736134 109.363457 92.5366252 109.204425 92.4990826 109.045523 92.460986 108.886754 92.4223355 108.728118 92.3831316 108.569618 92.3433752 108.411256 92.3030666 108.253034 92.2622063 108.094953 92.2207946 107.937017 92.1788321 107.779226 92.1363193 107.621582 92.0932569 107.464088 92.0496453 107.306745 92.0054849 107.149556 91.9607765 106.992521 91.9155207 106.835644 91.8697175 106.678926 91.823368 106.522368 91.7764727 106.365974 91.7290318 106.209744 91.6810463 106.053681 91.6325167 105.897786 91.5834434 105.742062 91.533827 105.58651 91.4836685 105.431133 91.432968 105.275931 91.3817263 105.120908 91.3299442 104.966064 91.2776221 104.811403 91.2247608 104.656925 91.1713612 104.502632 91.1174232 104.348527 91.062948 104.194611 91.0079361 104.040887 90.9523885 103.887356 90.8963053 103.734019 90.8396877 103.580879 90.782536 103.427938 90.7248511 103.275198 90.6666338 103.12266 90.6078846 102.970326 90.5486042 102.818198 90.4887936 102.666278 90.4284532 102.514568 90.3675841 102.36307 90.3061865 102.211785 90.2442617 102.060716 90.1818101 101.909864 90.1188329 101.75923 90.0553301 101.608818 89.9913031 101.458628 89.9267528 101.308663 89.8616794 101.158925 89.7960841 101.009414 89.7299675 100.860133 89.6633306 100.711085 89.5961741 100.56227 89.5284985 100.41369 89.4603053 100.265348 89.3915949 100.117244 89.3223683 99.9693817 89.2526263 99.8217619 89.1823694 99.6743868 89.1115992 99.5272577 89.0403158 99.3803767 88.9685204 99.2337458 88.8962141 99.0873663 88.8233976 98.9412402 88.7500715 98.7953693 88.6762369 98.6497555 88.6018948 98.5044006 88.5270461 98.3593059 88.4516917 98.2144737 88.3758323 98.0699055 88.2994691 97.9256031 88.222603 97.7815681 88.1452348 97.6378027 88.0673654 97.4943084 87.9889962 97.3510867 87.9101274 97.2081398 87.8307605 97.0654692 87.7508964 96.9230765 87.6705361 96.7809639 87.5896802 96.6391325 87.5083302 96.4975846 87.4264869 96.3563214 87.3441512 96.215345 87.2613241 96.0746572 87.1780066 95.9342595 87.0942 95.7941534 87.0099049 95.6543411 86.9251228 95.5148239 86.8398545 95.3756038 86.7541007 95.2366822 86.6678628 95.0980611 86.581142 94.9597419 86.493939 94.8217264 86.4062552 94.6840164 86.3180913 94.5466135 86.2294487 94.4095193 86.1403283 94.2727356 86.0507313 94.1362636 85.9606586 94.0001058 85.8701116 93.8642633 85.7790911 93.7287377 85.6875982 93.593531 85.5956345 93.4586447 85.5032004 93.3240804 85.4102977 93.1898396 85.3169271 93.0559242 85.2230899 92.9223354 85.1287872 92.7890755 85.03402 92.6561456 84.9387899 92.5235476 84.8430977 92.391283 84.7469444 92.2593533 84.6503316 92.1277603 84.5532603 91.9965056 84.4557317 91.8655907 84.357747 91.7350172 84.2593071 91.6047867 84.1604137 91.4749007 84.0610677 91.3453608 83.9612704 91.216169 83.8610228 91.0873262 83.7603265 90.9588344 83.6591824 90.8306952 83.5575918 90.7029099 83.4555564 90.5754803 83.3530766 90.4484077 83.2501543 90.3216939 83.1467906 90.1953402 83.0429868 90.0693483 82.9387438 89.9437198 82.8340634 89.8184561 82.7289463 89.6935587 82.6233943 89.5690293 82.5174085 89.4448693 82.4109903 89.3210801 82.3041405 89.1976634 82.196861 89.0746206 82.089153 88.9519532 81.9810175 88.8296626 81.8724561 88.7077507 81.7634702 88.5862184 81.6540608 88.4650677 81.5442295 88.3442999 81.4339773 88.2239164 81.3233059 88.1039183 81.2122165 87.9843079 81.1007106 87.865086 80.9887893 87.7462543 80.8764544 87.6278144 80.7637066 87.5097674 80.6505479 87.3921147 80.5369793 87.2748583 80.4230024 87.1579989 80.3086183 87.0415386 80.1938287 86.9254783 80.0786348 86.8098197 79.9630383 86.694564 79.8470403 86.5797129 79.7306425 86.4652674 79.6138457 86.3512292 79.4966523 86.2375997 79.3790627 86.1243803 79.2610791 86.011572 79.1427027 85.8991767 79.0239347 85.7871953 78.9047768 85.6756296 78.7852305 85.5644806 78.6652969 85.4537497 78.5449779 85.3434384 78.424275 85.2335481 78.3031892 85.12408 78.1817221 85.0150356 78.0598756 84.9064159 77.9376506 84.7982224 77.815049 84.6904566 77.6920722 84.5831194 77.5687218 84.4762124 77.444999 84.369737 77.3209056 84.2636943 77.196443 84.1580857 77.0716126 84.0529122 76.9464161 83.9481755 76.820855 83.8438766 76.6949306 83.7400171 76.5686447 83.6365978 76.441999 83.5336203 76.3149945 83.4310856 76.1876333 83.3289953 76.0599165 83.2273502 75.9318461 83.1261519 75.8034232 83.0254014 75.6746496 82.9251001 75.5455271 82.8252492 75.4160567 82.7258499 75.2862403 82.6269034 75.1560797 82.5284107 75.0255762 82.4303733 74.8947316 82.3327924 74.8880119 82.3278"></polyline>
                <path d="M93.7718533,119.885918 L93.7718533,149.652888" id="Stroke-22" stroke="#000000"></path>
            </g>
        </g>
    </g>
</svg>